<svg xmlns="http://www.w3.org/2000/svg" viewBox="0 0 480 560" width="480" height="560" role="img" aria-label="INTP 논리술사 캐릭터 (여성 버전)">
  <title>INTP 논리술사 캐릭터 (여성 버전)</title>
  <desc>마인드타입 자체 제작 플랫 벡터 캐릭터 시안 v0.9 · 분석가 기질(NT)</desc>
  <defs><clipPath id="card"><rect x="0" y="0" width="480" height="560" rx="36"/></clipPath></defs>
  <g clip-path="url(#card)">
    <g id="bg">
    <rect x="0" y="0" width="480" height="560" rx="36" fill="#F1EBFA"/>
    <circle cx="240" cy="238" r="150" fill="#FFFFFF" opacity="0.42"/>
    <ellipse cx="240" cy="548" rx="210" ry="70" fill="#dad1ed" opacity="0.6"/>
  </g>
    <g id="hair-back">
        <path d="M148 226 Q112 352 144 452 L182 452 Q166 352 170 262 Z" fill="#47342c"/>
        <path d="M332 226 Q368 352 336 452 L298 452 Q314 352 310 262 Z" fill="#47342c"/>
      </g>
    <g id="body">
    <rect x="218" y="298" width="44" height="56" rx="16" fill="#EAB98E"/>
    <path d="M80 560 L80 412
             Q82 340 170 326
             Q240 318 310 326
             Q398 340 400 412
             L400 560 Z" fill="#7C5CBF"/>
    <path d="M170 326 Q240 318 310 326
             L310 350 Q240 338 170 350 Z" fill="#5e4c97"/>
  </g>
    <g id="accessory">
        <path d="M210 334 L240 372 L270 334 Z" fill="#FFFFFF" opacity="0.9"/>
        <circle cx="274.0" cy="353.0" r="6" fill="#9d85cf"/><circle cx="282.6" cy="359.2" r="6" fill="#9d85cf"/><circle cx="279.3" cy="369.3" r="6" fill="#9d85cf"/><circle cx="268.7" cy="369.3" r="6" fill="#9d85cf"/><circle cx="265.4" cy="359.2" r="6" fill="#9d85cf"/><circle cx="274" cy="362" r="5" fill="#7C5CBF"/>
      </g>
    <g id="head">
    <ellipse cx="150" cy="246" rx="14" ry="18" fill="#EAB98E"/>
    <ellipse cx="330" cy="246" rx="14" ry="18" fill="#EAB98E"/>
    <circle cx="240" cy="232" r="96" fill="#EAB98E"/>
    <circle cx="182" cy="262" r="15" fill="#EFA7A0" opacity="0.30"/>
    <circle cx="298" cy="262" r="15" fill="#EFA7A0" opacity="0.30"/>
    <ellipse cx="210" cy="238" rx="7.5" ry="9" fill="#31303A"/>
    <ellipse cx="270" cy="238" rx="7.5" ry="9" fill="#31303A"/>
    <circle cx="212.4" cy="235.4" r="2.2" fill="#FFFFFF"/>
    <circle cx="272.4" cy="235.4" r="2.2" fill="#FFFFFF"/>
    <path d="M201 222 q9 -6 18 0" fill="none" stroke="#49342c" stroke-width="3.4" stroke-linecap="round"/>
    <path d="M261 222 q9 -6 18 0" fill="none" stroke="#49342c" stroke-width="3.4" stroke-linecap="round"/>
    <path d="M237 250 q3 5 6 0" fill="none" stroke="#af9077" stroke-width="3" stroke-linecap="round"/>
    <path d="M225 268 q15 14 30 0" fill="none" stroke="#B9605C" stroke-width="4" stroke-linecap="round"/>
  </g>
    <g id="hair">
        <path d="M142 238
        Q138 156 188 134
        Q240 112 292 134
        Q342 156 338 238
        Q322 204 280 202
        Q258 218 240 210
        Q220 218 200 202
        Q158 204 142 238 Z" fill="#4E362A"/>
        <path d="M142 234 Q134 302 150 328 L166 324 Q146 282 154 236 Z" fill="#4E362A"/>
        <path d="M338 234 Q346 302 330 328 L314 324 Q334 282 326 236 Z" fill="#4E362A"/>
      </g>
    <g id="badge">
    <circle cx="384" cy="112" r="51" fill="#FFFFFF"/>
    <circle cx="384" cy="112" r="46" fill="#7C5CBF"/>
    <path d="M378 90 L378 106 L366 130 Q366 134 370 134 L398 134 Q402 134 402 130 L390 106 L390 90" fill="none" stroke="#FFFFFF" stroke-width="5" stroke-linecap="round" stroke-linejoin="round"/><path d="M374 90 L394 90" stroke="#FFFFFF" stroke-width="5" stroke-linecap="round"/><circle cx="380" cy="124" r="2.6" fill="#7C5CBF"/><circle cx="389" cy="118" r="2" fill="#7C5CBF"/>
  </g>
    <g id="type">
    <rect x="156" y="494" width="168" height="44" rx="22" fill="#FFFFFF"/>
    <rect x="157" y="495" width="166" height="42" rx="21" fill="none" stroke="#c4b6e2" stroke-width="1.5"/>
    <circle cx="178" cy="516" r="6" fill="#7C5CBF"/>
    <text x="248" y="517" text-anchor="middle" dominant-baseline="central"
      font-family="ui-monospace,'Cascadia Code',Consolas,monospace" font-size="20" font-weight="800"
      letter-spacing="3" fill="#17263B">INTP</text>
  </g>
  </g>
</svg>
